# xmcd
#
# Track frame offsets:
# 150
# 12743
# 23226
# 33615
# 47829
# 56574
# 67978
# 83318
# 94926
# 106263
#
# Disc length: 1559 seconds
#
#
# Revision: 0
# Processed by: cddbd v1.4PL0 Copyright (c) Steve Scherf et al.
# Submitted via: FreeRIP 2.30 
#
DISCID=7a06150a
DTITLE=Merle Haggard - Christmas Present
DYEAR=1973
DGENRE=Country
TTITLE0=If We Make It Through December
TTITLE1=Santa Claus And Popcorn
TTITLE2=Bobby Wants A Puppy Dog For Christmas
TTITLE3=Daddy Won't Be Home Again For Christmas
TTITLE4=Grandma's Homemade Christmas Card
TTITLE5=White Christmas
TTITLE6=Silver Bells
TTITLE7=Winter Wonderland
TTITLE8=Silent Night
TTITLE9=Jingle Bells
EXTD=Capitol ST 11230
EXTT0=
EXTT1=
EXTT2=
EXTT3=
EXTT4=
EXTT5=
EXTT6=
EXTT7=
EXTT8=
EXTT9=
PLAYORDER=
